<?xml version="1.0" standalone="no"?>
<!DOCTYPE svg PUBLIC "-//W3C//DTD SVG 20010904//EN"
 "http://www.w3.org/TR/2001/REC-SVG-20010904/DTD/svg10.dtd">
<svg version="1.0" xmlns="http://www.w3.org/2000/svg"
 width="1079.000000pt" height="1080.000000pt" viewBox="0 0 1079.000000 1080.000000"
 preserveAspectRatio="xMidYMid meet">

<g transform="translate(0.000000,1080.000000) scale(0.100000,-0.100000)"
fill="#000000" stroke="none">
<path d="M0 5400 l0 -5400 5395 0 5395 0 0 5400 0 5400 -5395 0 -5395 0 0
-5400z m2586 1091 c5 -5 25 -14 44 -19 19 -6 150 -45 290 -87 140 -42 323 -97
405 -122 155 -46 176 -56 159 -73 -6 -6 -154 -46 -330 -91 -474 -120 -576
-147 -588 -159 -12 -12 -9 -191 4 -225 7 -19 9 -18 19 8 6 16 11 37 11 47 0
10 5 22 10 25 6 3 10 15 10 26 0 11 5 17 10 14 6 -4 15 7 21 24 10 29 15 31
57 31 26 0 74 -5 107 -10 59 -10 61 -9 85 18 14 16 39 35 55 43 17 8 36 20 44
27 7 7 26 16 42 19 16 3 29 9 29 14 0 5 6 9 13 9 8 0 22 9 32 20 10 11 25 20
34 20 9 0 29 7 45 15 15 8 35 15 43 15 8 0 29 6 46 14 72 31 192 63 198 52 4
-6 10 -118 14 -248 l7 -238 -24 -9 c-12 -6 -108 -33 -213 -61 -104 -28 -212
-58 -240 -65 -77 -22 -343 -91 -405 -106 -30 -7 -60 -17 -67 -23 -9 -8 -12
-84 -14 -271 -1 -143 -3 -263 -6 -267 -2 -4 -18 -1 -36 6 -18 8 -93 33 -167
56 -74 23 -143 46 -152 51 -10 5 -24 9 -33 9 -8 0 -29 6 -47 14 -18 8 -60 22
-93 32 -33 9 -67 20 -75 24 -8 4 -42 15 -75 25 -33 9 -69 21 -80 25 -59 21
-93 33 -123 40 -42 10 -67 30 -51 41 9 5 9 43 1 166 -7 87 -12 323 -12 525 l0
366 48 15 c26 8 94 27 152 42 58 15 168 45 245 65 77 21 212 57 300 80 88 24
164 47 170 52 12 11 69 10 81 -1z m2112 -47 c64 -20 131 -40 147 -44 17 -4
129 -38 250 -75 121 -37 240 -73 265 -80 112 -32 150 -46 150 -55 0 -11 32 -2
-400 -115 -471 -124 -469 -123 -511 -142 -34 -14 -41 -13 -95 5 -33 11 -113
36 -179 55 -264 77 -306 91 -470 143 -203 66 -215 71 -215 83 0 6 19 15 43 21
23 7 80 22 127 35 47 12 216 57 375 100 160 42 308 83 330 90 56 19 54 19 183
-21z m2224 -90 c348 -103 363 -108 513 -152 55 -16 100 -34 100 -40 0 -7 -55
-58 -121 -114 -370 -312 -354 -291 -234 -320 41 -10 93 -24 115 -32 22 -8 82
-27 132 -42 51 -16 90 -31 85 -35 -11 -12 -485 -139 -589 -158 -51 -10 -93
-14 -93 -9 0 4 4 8 8 8 5 0 19 9 32 20 13 11 29 20 36 20 7 0 16 9 19 20 4 11
11 18 16 15 5 -4 9 5 9 18 0 13 16 45 36 71 20 26 33 50 30 53 -5 6 -188 -137
-319 -249 -37 -32 -74 -58 -81 -58 -10 0 -16 24 -21 88 -10 124 -23 141 -37
48 -4 -27 -28 -32 -35 -7 -4 18 -14 21 -57 23 -84 3 -90 4 -113 16 -12 7 -29
12 -37 12 -8 0 -20 8 -25 18 -9 14 -12 15 -20 3 -5 -8 -14 -10 -22 -5 -8 5
-24 7 -36 5 -16 -2 -23 3 -23 14 0 12 -6 15 -22 10 -13 -4 -31 -9 -41 -11 -10
-3 -20 1 -23 10 -7 18 -44 22 -44 5 0 -13 -58 -2 -78 14 -10 8 -16 7 -22 -3
-7 -12 -11 -12 -25 0 -13 11 -21 11 -35 2 -14 -9 -20 -8 -24 1 -3 9 -7 8 -15
-3 -7 -10 -11 -11 -11 -2 0 7 -14 12 -35 12 -19 0 -43 4 -53 9 -9 6 -29 12
-43 15 -16 4 -29 15 -34 28 -3 13 -9 133 -12 267 l-6 244 24 -6 c24 -6 71 -19
132 -37 17 -5 55 -16 82 -24 28 -8 89 -27 138 -41 l87 -27 83 71 c45 39 150
129 232 201 83 71 151 130 152 130 2 0 148 -43 325 -96z m-3028 -293 c-10 -10
-21 -17 -23 -15 -6 6 20 34 32 34 6 0 2 -8 -9 -19z m71 9 c3 -5 23 -10 43 -10
20 0 46 -7 56 -15 11 -8 30 -15 41 -15 12 0 35 -7 51 -15 16 -8 54 -21 84 -28
30 -8 56 -19 58 -26 2 -6 18 -11 35 -11 24 0 28 -3 17 -10 -8 -5 -10 -10 -4
-10 5 0 15 5 21 11 7 7 12 5 17 -6 6 -15 0 -17 -51 -12 -42 4 -51 3 -33 -3 21
-8 19 -9 -14 -5 -21 2 -48 0 -58 -6 -15 -8 -24 -7 -37 5 -20 18 -48 12 -68
-13 -11 -14 -14 -14 -22 -2 -6 10 -3 19 12 32 l22 17 -28 -5 c-20 -4 -27 -1
-27 11 0 12 -9 16 -34 16 -19 0 -42 7 -50 16 -15 14 -16 14 -16 0 0 -9 -4 -16
-10 -16 -10 0 -14 14 -11 38 1 6 -3 12 -9 12 -7 0 -10 6 -7 13 2 6 -2 20 -11
30 -14 15 -13 17 6 17 11 0 24 -4 27 -10z m490 -160 c-3 -5 -13 -6 -21 -3 -12
4 -13 8 -3 14 15 9 32 2 24 -11z m99 -18 c7 -20 1 -87 -9 -102 -3 -6 -2 -10 3
-10 5 0 9 -6 9 -14 0 -8 -6 -12 -15 -9 -8 4 -12 15 -9 30 2 13 -2 40 -9 61 -7
20 -13 31 -14 25 0 -16 -26 -17 -36 -1 -5 7 -3 8 6 3 10 -6 12 -4 7 8 -4 12 1
17 21 20 15 2 30 5 34 6 4 0 9 -7 12 -17z m366 -67 c41 -7 128 -25 194 -39
139 -31 127 -29 120 -12 -8 22 9 26 106 27 56 0 104 6 126 15 33 14 35 14 44
-11 6 -15 10 -57 10 -95 l0 -69 -52 -15 c-29 -9 -136 -38 -238 -66 -102 -27
-225 -61 -275 -75 -177 -49 -271 -74 -307 -80 -21 -4 -42 -13 -49 -21 -24 -29
-29 -11 -29 95 0 172 5 183 125 264 33 22 71 53 85 68 29 32 40 33 140 14z
m-220 -501 c30 -8 69 -19 85 -24 68 -19 253 -75 445 -136 113 -36 220 -70 238
-75 39 -13 41 -27 5 -34 -51 -11 -775 -195 -871 -221 l-23 -6 1 243 c1 155 5
248 12 256 14 17 41 16 108 -3z m-1240 -1147 c42 -11 45 -14 42 -42 -5 -41
-14 -48 -48 -34 -39 15 -159 15 -212 0 -58 -16 -126 -80 -149 -139 -12 -30
-18 -74 -18 -122 0 -125 52 -210 155 -251 37 -14 177 -18 198 -5 8 5 12 40 12
107 l0 99 -65 0 -65 0 0 35 0 35 110 0 110 0 0 -164 0 -165 -76 -17 c-204 -45
-372 16 -445 162 -21 43 -24 63 -24 159 0 91 4 118 21 156 42 90 125 159 223
185 58 16 172 16 231 1z m3200 0 c42 -11 45 -14 42 -42 -5 -41 -14 -48 -48
-34 -39 15 -159 15 -212 0 -58 -16 -126 -80 -149 -139 -12 -30 -18 -74 -18
-122 0 -125 52 -210 155 -251 37 -14 177 -18 198 -5 8 5 12 40 12 107 l0 99
-65 0 -65 0 0 35 0 35 110 0 110 0 0 -164 0 -165 -76 -17 c-204 -45 -372 16
-445 162 -21 43 -24 63 -24 159 0 91 4 118 21 156 42 90 125 159 223 185 58
16 172 16 231 1z m1776 2 c24 -6 46 -15 49 -19 3 -4 0 -22 -6 -39 -8 -24 -16
-31 -28 -26 -46 18 -120 25 -171 15 -85 -16 -139 -55 -175 -125 -27 -52 -30
-68 -29 -144 0 -129 44 -204 143 -248 43 -18 172 -21 215 -4 34 14 43 7 48
-34 3 -28 0 -30 -47 -43 -30 -8 -85 -12 -136 -9 -158 6 -265 82 -305 216 -23
75 -15 208 15 276 38 86 121 157 211 181 58 16 159 17 216 3z m-5929 -40 c120
-61 170 -160 160 -316 -6 -101 -37 -172 -101 -231 -67 -61 -138 -84 -283 -90
-67 -2 -134 -2 -148 2 l-25 6 0 330 0 329 33 4 c17 3 92 4 165 3 129 -2 134
-3 199 -37z m353 -294 l0 -335 -45 0 -45 0 0 335 0 335 45 0 45 0 0 -335z
m890 0 l0 -335 -45 0 -45 0 0 335 0 335 45 0 45 0 0 -335z m578 298 l-3 -38
-102 -3 -103 -3 0 -294 0 -295 -45 0 -45 0 0 295 0 295 -100 0 -100 0 0 40 0
40 251 0 250 0 -3 -37z m398 -298 c63 -181 114 -331 114 -332 0 -2 -22 -3 -48
-3 l-48 0 -34 105 -35 105 -120 0 -120 0 -33 -105 -33 -105 -48 0 -47 0 114
335 115 336 55 -3 55 -3 113 -330z m294 35 l0 -300 145 0 145 0 0 -35 0 -35
-190 0 -190 0 0 335 0 335 45 0 45 0 0 -300z m926 200 c17 -52 68 -201 113
-330 45 -129 81 -235 81 -237 0 -2 -21 -3 -47 -3 l-48 0 -35 103 -35 102 -121
3 -120 3 -33 -106 -32 -105 -44 0 c-25 0 -45 4 -45 10 0 5 27 90 61 187 33 98
84 245 111 326 l51 148 55 -3 55 -3 33 -95z m1284 65 l0 -35 -140 0 -140 0 0
-105 0 -105 130 0 130 0 0 -35 0 -35 -130 0 -130 0 0 -125 0 -125 145 0 145 0
0 -35 0 -35 -190 0 -190 0 0 335 0 335 185 0 185 0 0 -35z m356 -173 c72 -114
146 -236 165 -272 l34 -65 -3 273 -3 272 40 0 41 0 0 -335 0 -335 -44 0 -44 0
-132 211 c-72 116 -148 241 -168 279 l-37 67 3 -278 3 -279 -41 0 -40 0 0 335
0 335 48 0 47 0 131 -208z m1123 51 c42 -83 78 -152 81 -152 3 0 41 69 85 154
l80 155 47 0 c27 0 48 -3 48 -6 0 -4 -49 -91 -110 -194 l-110 -188 0 -141 0
-141 -45 0 -45 0 0 143 0 142 -91 165 c-50 91 -98 178 -106 193 l-14 28 52 -3
51 -3 77 -152z"/>
<path d="M3980 6016 c0 -2 7 -6 15 -10 8 -3 15 -1 15 4 0 6 -7 10 -15 10 -8 0
-15 -2 -15 -4z"/>
<path d="M2217 4104 c-16 -5 -17 -24 -15 -267 l3 -262 80 0 c103 1 156 17 207
63 50 45 76 101 84 180 19 176 -78 283 -260 288 -45 2 -89 0 -99 -2z"/>
<path d="M4536 4034 c-10 -32 -31 -97 -47 -144 -16 -46 -29 -88 -29 -92 0 -4
43 -8 95 -8 52 0 95 3 95 8 -1 4 -23 72 -49 151 l-48 145 -17 -60z"/>
<path d="M5809 3951 c-24 -74 -45 -141 -47 -148 -3 -10 19 -13 92 -13 53 0 96
3 96 8 0 4 -22 70 -48 148 l-48 141 -45 -136z"/>
</g>
</svg>
